<svg xmlns="http://www.w3.org/2000/svg" viewBox="0 0 64 64">
  <path d="M 42.217 17.238 C 42.463 27.014, 42.728 28.520, 44.250 28.811 C 45.678 29.085, 46 28.420, 46 25.196 C 46 22.957, 46.631 20.721, 47.456 20.036 C 48.664 19.034, 49.447 19.697, 52.042 23.914 C 54.662 28.172, 55.652 29, 58.121 29 C 61.492 29, 61.456 28.874, 55.650 20.500 L 52.184 15.500 56.805 10.750 L 61.425 6 58.415 6 C 56.222 6, 54.347 7.085, 51.500 10 C 49.352 12.200, 47.235 14, 46.797 14 C 46.359 14, 46 12.200, 46 10 C 46 6.645, 45.672 6, 43.967 6 C 42.027 6, 41.947 6.514, 42.217 17.238 M 10 26.592 C 6.031 28.308, -0 33.764, 0 35.637 C 0 38.366, 2.268 37.991, 5.967 34.649 C 9.977 31.026, 15.254 28.990, 20.500 29.040 C 23.294 29.067, 28.618 30.997, 43.500 37.379 C 50.826 40.521, 57.267 40.744, 61.750 38.011 C 65.234 35.887, 66.125 33.168, 63.250 33.436 C 62.288 33.525, 59.691 34.179, 57.480 34.889 C 52.929 36.349, 49.514 35.420, 34.500 28.638 C 27.903 25.658, 25.360 25.029, 20 25.051 C 16.425 25.066, 11.925 25.759, 10 26.592 M 12.717 43.565 C 12.393 47.848, 11.462 52.172, 10.572 53.530 C 9.707 54.850, 9 56.395, 9 56.965 C 9 57.613, 12.929 58, 19.500 58 C 27.976 58, 30 57.722, 30 56.559 C 30 55.766, 29.550 54.840, 29 54.500 C 28.450 54.160, 28 49.859, 28 44.941 L 28 36 20.644 36 L 13.289 36 12.717 43.565 M 16.989 43.750 C 16.983 45.813, 16.699 49.188, 16.358 51.250 L 15.738 55 19.869 55 L 24 55 24 47.500 L 24 40 20.500 40 C 17.124 40, 17 40.133, 16.989 43.750" stroke="none" fill="#007C88" fill-rule="evenodd"/>
</svg>